<svg xmlns:dc="http://purl.org/dc/elements/1.1/" xmlns:cc="http://creativecommons.org/ns#" xmlns:rdf="http://www.w3.org/1999/02/22-rdf-syntax-ns#" xmlns:svg="http://www.w3.org/2000/svg" xmlns="http://www.w3.org/2000/svg" viewBox="0 0 859.29333 861.4267" height="861.4267" width="859.29333" xml:space="preserve" id="svg2"><metadata></metadata><defs id="defs6"></defs><g transform="matrix(1.3333333,0,0,-1.3333333,0,861.42667)" id="g10"><g transform="scale(0.1)" id="g12"><path id="path14" style="fill:#4ec2a1;fill-opacity:1;fill-rule:evenodd;stroke:none" d="m 4812.17,1924.62 c -53,-64 -110,-125 -169.9,-181.8 l -1.31,-1.2 -0.59,-0.5 -2.9,-2.9 c -377.1,-355.8 -869.9,-555.3 -1388.1,-561.8 -10.2,-0.1 -20.4,-0.2 -30.81,-0.2 -6.99,0 -14.29,0 -21.49,0.2 h -1.21 c -179.39,2.2 -357.3,27.6 -528.79,75.5 -11.31,3.1 -22.4,6.3 -33.51,9.5 l -8.69,2.7 c -4.8,1.5 -9.7,3 -14.8,4.6 l -24.7,7.9 c -52.8,17.2 -104.81,36.5 -154.41,57.3 l -2.1,0.9 c -3,1.2 -5.9,2.4 -8.79,3.6 l -4.41,1.9 c -2.5,1 -5.1,2 -7.5,3.2 l -4.8,2.1 c -3.89,1.6 -7.9,3.4 -11.79,5.2 l -5.71,2.5 c -3.79,1.6 -7.5,3.3 -11.39,5.1 l -3.21,1.5 c -6.79,3 -13.49,6.1 -20.2,9.3 -5.2,2.4 -10.4,4.9 -15.69,7.3 l -24.51,11.8 c -7.8,3.9 -15.59,7.8 -23.39,11.8 l -8.1,4.2 c -1.41,0.7 -2.8,1.4 -4.2,2.1 l -7.5,3.9 c -12.9,6.8 -26,13.8 -38.5,20.5 -6.21,3.4 -12.3,6.9 -18.51,10.3 l -10.1,5.7 c -18.39,10.6 -33.29,19.4 -46.7,27.7 l -22.29,13.4 c -236.3,147.8 -437.2,338.2 -596.9,565.7 l -3.41,4.9 c -2.09,2.9 -4.19,5.9 -6.79,9.7 -39.7,57.3 -76.8,117.4 -110.51,178.8 v 1.7 l -13.5,23.3 c -1.29,2.3 -2.59,4.6 -3.69,6.9 l -1.31,2.6 c -34.8,66.2 -65.89,134.3 -93.19,203.9 10.6,-5.6 21.59,-11.2 32.9,-16.9 3.79,-2 7.6,-3.9 11.5,-5.8 33.99,-17.3 71,-35.4 110.8,-54.3 5.3,-2.5 10.69,-5.1 16.09,-7.6 64.6,-30.3 136.41,-62.4 215.1,-95.2 11.21,-4.7 22.6,-9.4 34.11,-14.1 23.09,-9.4 46.7,-18.8 70.79,-28.4 26.51,-10.4 53.71,-20.8 81.51,-31.3 9.4,-3.5 18.79,-7 28.39,-10.6 1.61,-0.5 3.11,-1.1 4.7,-1.7 9.51,-3.5 19.01,-7 28.61,-10.5 22.4,-8.1 45.2,-16.2 68.3,-24.3 20.2,-7 40.59,-14 61.39,-21 l 0.51,-0.2 c 19.9,-6.7 40.2,-13.4 60.7,-20.1 25,-8.1 50.49,-16.2 76.29,-24.2 11.8,-3.6 23.61,-7.2 35.61,-10.9 11.89,-3.6 23.99,-7.2 36.09,-10.8 12.11,-3.6 24.21,-7.1 36.51,-10.7 13.39,-3.9 26.9,-7.7 40.5,-11.5 11.29,-3.2 22.6,-6.4 34,-9.5 16,-4.4 31.99,-8.7 48,-13 43.79,-11.7 87.6,-22.9 131.49,-33.5 14.21,-3.5 28.41,-6.9 42.6,-10.2 17.6,-4.2 35.31,-8.2 53.01,-12.2 13.6,-3.1 27.09,-6.1 40.7,-9.1 34.5,-7.5 69,-14.7 103.49,-21.6 12.7,-2.5 25.4,-5 38.11,-7.5 1.59,-0.3 3.2,-0.6 4.79,-0.9 13.41,-2.6 26.8,-5.1 40.21,-7.6 17.8,-3.3 35.5,-6.5 53.2,-9.5 11.7,-2.1 23.49,-4.1 35.2,-6.1 9.2,-1.6 18.49,-3.1 27.7,-4.6 11.6,-2 23.19,-3.8 34.8,-5.6 11.09,-1.7 22.2,-3.5 33.29,-5.2 6.71,-1 13.41,-2 20.1,-3 11.51,-1.7 23.11,-3.4 34.6,-5 l 1.91,-0.2 c 12.8,-1.9 25.59,-3.7 38.29,-5.3 37.21,-5.1 74.41,-9.8 111.51,-14 27.3,-3.2 54.7,-6.1 82,-8.9 18.89,-1.9 37.7,-3.7 56.59,-5.4 13.1,-1.1 26.21,-2.3 39.31,-3.4 15.69,-1.3 31.29,-2.5 47,-3.7 31.29,-2.4 62.6,-4.5 93.89,-6.3 29.11,-1.7 58.21,-3.2 87.3,-4.4 34.51,-1.5 68.91,-2.7 103.41,-3.5 14.69,-0.4 29.39,-0.7 44.09,-0.9 31.11,-0.5 62.3,-0.8 93.41,-0.8 h 1 c 16.6,0 33.19,0.1 49.9,0.3 20.89,0.1 41.8,0.4 62.7,0.9 17.69,0.3 35.49,0.7 53.19,1.3 14.8,0.4 29.5,0.9 44.21,1.5 6.7,0.2 13.49,0.5 20.2,0.8 15.49,0.6 30.99,1.3 46.4,2.1 18,0.8 36,1.8 53.89,2.9 32.8,1.9 65.7,4.2 98.61,6.7 8,0.6 16,1.2 24.09,1.9 19.51,1.6 39.01,3.3 58.51,5.1 12.5,1.1 24.9,2.3 37.3,3.5 2.4,0.2 4.9,0.5 7.4,0.7 17.4,1.8 34.79,3.6 52.19,5.5 15.61,1.7 31.31,3.5 46.9,5.4 17.8,2 35.7,4.2 53.51,6.5 11.39,1.4 22.8,2.9 34.19,4.4 30.61,4.1 61.31,8.4 91.91,13.1 16.5,2.4 32.99,5 49.4,7.6"></path><path id="path16" style="fill:#4ec2a1;fill-opacity:1;fill-rule:evenodd;stroke:none" d="m 5181.06,2590.52 c -1.19,-3.5 -2.4,-7.1 -3.59,-10.7 -48.61,-7.3 -97.3,-14 -146,-19.9 -17.1,-2.1 -34.2,-4.1 -51.3,-6 -16.81,-1.9 -33.7,-3.7 -50.6,-5.4 -0.91,-0.1 -1.8,-0.2 -2.8,-0.3 -16.4,-1.7 -32.8,-3.2 -49.2,-4.7 -31.51,-2.9 -63,-5.5 -94.61,-7.8 l -22.5,-1.5 c -9.1,-0.7 -18.19,-1.3 -27.3,-1.8 -5.89,-0.4 -11.9,-0.8 -17.79,-1 -9.81,-0.7 -19.51,-1.2 -29.31,-1.7 -7.2,-0.4 -14.49,-0.8 -21.69,-1.1 -13.11,-0.7 -26.21,-1.3 -39.3,-1.8 -2.5,-0.2 -5,-0.3 -7.5,-0.3 -9.7,-0.4 -19.41,-0.8 -29.11,-1.1 -9.29,-0.3 -18.59,-0.6 -27.9,-0.9 -4.4,-0.1 -8.79,-0.3 -13.29,-0.3 -12.3,-0.4 -24.7,-0.7 -37.1,-0.9 -14.8,-0.3 -29.71,-0.5 -44.61,-0.6 -17.1,-0.2 -34.3,-0.3 -51.49,-0.3 -270.51,0 -541.8,21.4 -812,64.2 -437.3,69.2 -872.9,194.4 -1295,371.9 -27,11.4 -53.71,22.9 -80.1,34.5 -8.81,3.8 -17.6,7.7 -26.31,11.6 -5,2.2 -10,4.4 -15,6.7 -7.6,3.4 -15.2,6.8 -22.7,10.2 -4.8,2.2 -9.5,4.3 -14.2,6.5 -17.19,7.8 -34.19,15.7 -50.99,23.6 -32.8,15.3 -65,30.8 -96.61,46.4 -7.4,3.6 -14.9,7.2 -22.2,10.9 -110.3,54.7 -212.8,109.8 -305.9,163.1 -6.29,3.5 -12.4,7.1 -18.49,10.6 -6.21,3.5 -12.2,7.1 -18.31,10.6 -6.09,3.5 -11.99,7 -18,10.5 -5.89,3.5 -11.9,7 -17.8,10.5 -17.59,10.4 -34.8,20.7 -51.7,30.9 -5.6,3.4 -11.09,6.8 -16.69,10.2 -16.61,10.1 -32.7,20.1 -48.51,30 -13.79,8.6 -27.2,17.1 -40.4,25.5 -16.9,10.8 -33.29,21.4 -49.2,31.9 -4.59,3 -9.29,6.1 -13.89,9.1 -7.8,5.2 -15.5,10.3 -23.1,15.4 -14.6,9.7 -28.61,19.3 -42.1,28.6 -6.41,4.3 -12.6,8.7 -18.71,12.9 -9.6,6.7 -18.99,13.3 -28,19.8 -10.99,7.8 -21.6,15.4 -31.7,22.8 -7.4,5.4 -14.49,10.6 -21.49,15.8 -5.6,4.3 -11.01,8.3 -16.31,12.3 -3,2.2 -5.79,4.4 -8.59,6.6 38.39,226.4 113.79,443 224.1,644 3.79,6.9 7.6,13.9 11.59,20.8 12.2,-11.5 24.61,-23 37.01,-34.5 70,-64.8 142.69,-128.4 217.79,-190.7 11.31,-9.5 22.7,-18.9 34.21,-28.2 3.29,-2.8 6.69,-5.5 10,-8.2 10.99,-9 22,-17.9 33,-26.6 3.8,-3.1 7.6,-6.2 11.4,-9.2 12.09,-9.7 24.19,-19.3 36.39,-28.8 12.11,-9.5 24.21,-19 36.41,-28.3 10.5,-8.2 20.99,-16.3 31.59,-24.2 4.7,-3.7 9.4,-7.2 14.11,-10.8 13.19,-10.1 26.5,-20 39.9,-29.9 2.4,-1.8 4.8,-3.6 7.2,-5.3 11.39,-8.6 22.8,-17 34.19,-25.3 5.81,-4.3 11.7,-8.5 17.61,-12.8 15.2,-11 30.4,-22 45.8,-32.9 15.1,-10.8 30.2,-21.5 45.5,-32.1 68.29,-47.7 137.99,-94.4 209,-139.8 13.59,-8.8 27.3,-17.5 41.09,-26.2 28.71,-18.1 57.6,-36 86.81,-53.7 11.9,-7.3 23.79,-14.5 35.79,-21.7 5.2,-3.2 10.5,-6.3 15.8,-9.4 11.11,-6.7 22.3,-13.3 33.51,-19.9 10.99,-6.5 22,-12.9 33,-19.2 5.09,-3.1 10.09,-6 15.19,-8.8 11.71,-6.9 23.51,-13.6 35.3,-20.3 7.9,-4.5 15.71,-9 23.61,-13.3 8.69,-5 17.4,-9.9 26.19,-14.7 12.4,-7 24.8,-13.9 37.21,-20.6 4.7,-2.7 9.4,-5.3 14.1,-7.8 13.49,-7.4 27,-14.7 40.5,-22 5,-2.7 10,-5.4 15,-8 17.7,-9.5 35.49,-18.9 53.39,-28.2 17.5,-9.2 35.2,-18.3 52.8,-27.4 40.1,-20.5 80.41,-40.6 121.01,-60.4 405.89,-197.5 822.9,-350.9 1239.4,-456 20.8,-5.3 41.59,-10.4 62.29,-15.4 14.7,-3.5 29.3,-7 43.91,-10.4 8.29,-2 16.6,-3.9 24.8,-5.7 38.79,-8.9 77.6,-17.4 116.19,-25.4 l 1.21,-0.2 c 20.59,-4.2 41.19,-8.4 61.7,-12.4 20.6,-4 41.1,-7.8 61.59,-11.6 81.81,-15 163.21,-27.9 244.01,-38.8 20.2,-2.7 40.3,-5.3 60.4,-7.8 40.2,-5 80.29,-9.4 120.2,-13.3 12.89,-1.3 25.79,-2.5 38.7,-3.6 8.5,-0.8 16.89,-1.5 25.4,-2.3 14.09,-1.2 28.2,-2.3 42.3,-3.3 l 1,-0.1 c 6.3,-0.5 12.5,-0.9 18.8,-1.4 15.6,-1.1 31.1,-2.1 46.59,-3 1.81,-0.2 3.61,-0.3 5.4,-0.4"></path><path id="path18" style="fill:#243c75;fill-opacity:1;fill-rule:evenodd;stroke:none" d="m 5284.77,3238.42 c 0,-8.9 0,-18 -0.1,-26.9 l -0.1,-1.1 c 0,-3.4 0,-7.1 -0.1,-10.7 l -0.1,-2.3 c 0,-1.9 0,-3.7 -0.1,-5.5 l -0.1,-5 c -0.71,-30.2 -2.3,-61.7 -4.9,-96.6 -7.2,-101.9 -21.9,-203.3 -43.9,-302.3 v -0.2 c -6.3,0.3 -12.6,0.7 -18.9,1.1 -9.4,0.4 -18.8,1 -28.31,1.6 -10.69,0.6 -21.39,1.3 -32.2,2.1 -10.79,0.7 -21.59,1.5 -32.4,2.3 -32.09,2.4 -64.39,5.2 -96.89,8.3 l -0.71,0.1 c -10.79,1 -21.69,2.1 -32.7,3.3 -10.89,1.1 -21.79,2.3 -32.7,3.5 -22,2.4 -43.89,5 -65.89,7.8 -11.01,1.4 -22,2.8 -33,4.3 -11.01,1.4 -22,2.9 -33.11,4.5 -10.5,1.4 -20.99,2.9 -31.59,4.5 -11.6,1.7 -23.31,3.4 -34.9,5.2 -10.1,1.5 -20.2,3.1 -30.3,4.7 -23.61,3.8 -47.2,7.7 -70.81,11.8 -20.1,3.5 -40.1,7.1 -60.2,10.8 -10.79,2 -21.69,4.1 -32.7,6.2 -20.69,4 -41.39,8.1 -62.1,12.3 -10.4,2.1 -20.79,4.3 -31.19,6.5 -19.8,4.2 -39.7,8.5 -59.6,12.9 -32.11,7.1 -64.41,14.6 -96.81,22.4 -20.89,5 -41.79,10.2 -62.8,15.5 -403.29,101.7 -807.3,250.4 -1200.89,441.9 -33.61,16.4 -67,33 -100.2,49.9 -20.3,10.3 -40.5,20.7 -60.61,31.2 -17.39,9.1 -34.89,18.2 -52.19,27.5 l -0.91,0.5 c -16.9,9 -33.69,18 -50.39,27.1 l -2.31,1.3 c -17.4,9.4 -34.7,19 -51.9,28.6 -13.99,7.7 -27.9,15.6 -41.79,23.5 -5.4,3 -10.81,6 -16.21,9.1 -14.5,8.3 -28.89,16.6 -43.19,24.9 -1,0.5 -2.01,1.1 -2.9,1.7 -16.9,9.8 -33.61,19.6 -50.3,29.5 -15.31,9.1 -30.51,18.2 -45.61,27.3 -3.99,2.4 -7.9,4.7 -11.69,7.2 -12.5,7.5 -24.9,15.1 -37.3,22.8 -3.51,2 -6.9,4.1 -10.2,6.3 -15.4,9.5 -30.81,19.1 -46.11,28.8 -13.49,8.5 -27,17.1 -40.4,25.7 -6.6,4.2 -13.19,8.5 -19.7,12.7 -12.8,8.3 -25.59,16.7 -38.39,25.1 -14.41,9.4 -28.71,18.9 -43,28.5 -7.1,4.8 -14.2,9.5 -21.21,14.3 -9.6,6.5 -19.09,12.9 -28.59,19.5 -21.7,14.7 -43.11,29.6 -64.4,44.6 -11.51,8.1 -23,16.2 -34.41,24.4 -15.59,11.1 -31.19,22.4 -46.69,33.7 -15.51,11.3 -30.91,22.6 -46.2,34 -15.4,11.4 -30.6,22.9 -45.8,34.4 -15.1,11.5 -30.2,23 -45.2,34.7 -30,23.2 -59.6,46.6 -88.91,70.3 -14.6,11.8 -29.2,23.7 -43.59,35.6 -12.4,10.1 -24.6,20.3 -36.8,30.7 -16.41,13.7 -32.7,27.5 -48.91,41.4 -14.09,12.1 -28.1,24.3 -41.99,36.5 -11.11,9.7 -22.1,19.5 -33.11,29.3 -4.09,3.6 -8,7.2 -11.99,10.8 -12.2,11 -24.4,22 -36.4,33 l -1.1,1.1 c -11.8,10.8 -23.51,21.6 -35.21,32.5 -2.4,2.3 -4.9,4.5 -7.29,6.9 -11.9,11.1 -23.7,22.3 -35.41,33.5 l -1.59,1.5 c 366.49,521.6 952.9,845 1589.8,875 l 49.29,1.7 c 14.01,0.4 29.11,0.6 45.1,0.6 h 3.91 c 20.99,0 41.19,-0.3 60.59,-1 465.1,-13.3 900,-177.7 1257.6,-475.2 348.21,-289.8 594.51,-691.2 693.41,-1130.3 2.7,-12.2 5.3,-24.3 7.8,-36.5 l 0.3,-1.7 c 2.3,-10.3 4.4,-20.6 6.29,-31 l 0.31,-1.6 c 1.3,-6.5 2.5,-13.2 3.6,-19.9 l 0.3,-1.4 c 2.59,-14.4 5.19,-29.7 8.29,-49.8 1.01,-6.7 2,-13.4 2.91,-20.2 l 0.6,-5.1 0.4,-1.8 c 3.19,-22.3 6.09,-46.5 9.1,-75.6 7.09,-70.1 10.6,-141.2 10.6,-211.1"></path><path id="path20" style="fill:#243c75;fill-opacity:1;fill-rule:evenodd;stroke:none" d="m 5091.67,2365.82 c -23.51,-50.4 -49.5,-100.4 -77.1,-148.9 -1.41,-2.5 -2.8,-4.9 -4.2,-7.2 l -1.4,-2.4 c -9.7,-16.8 -19.7,-33.3 -29.8,-49.8 l -0.1,-0.1 c -7.81,-1.5 -15.51,-3 -23.31,-4.5 -12.4,-2.4 -24.7,-4.7 -37.1,-7 -11.39,-2.1 -22.7,-4.2 -34.09,-6.2 -11.31,-2.1 -22.6,-4.1 -34.01,-6 -22.69,-3.9 -45.29,-7.6 -67.99,-11.3 -11.51,-1.8 -22.9,-3.6 -34.31,-5.3 -22.7,-3.5 -45.39,-6.8 -68.19,-10 -11.31,-1.6 -22.7,-3.2 -34.11,-4.7 -22.8,-3 -45.5,-5.9 -68.29,-8.7 -11.41,-1.3 -22.8,-2.7 -34.21,-4 -11.39,-1.3 -22.8,-2.6 -34.09,-3.8 -11.41,-1.3 -22.8,-2.5 -34.2,-3.6 -242.6,-24.7 -486,-33 -729.51,-24.8 -15.1,0.5 -30.2,1.1 -45.29,1.7 l -45.3,2.1 c -30.2,1.4 -60.4,3.2 -90.7,5.3 -13.71,0.9 -27.4,1.9 -41.11,2.9 -2,0.1 -3.99,0.3 -5.89,0.4 -14.6,1.2 -29.11,2.3 -43.71,3.5 -60.5,5 -120.89,11 -181.29,18.2 -15.1,1.8 -30.3,3.6 -45.4,5.5 -11.7,1.5 -23.51,3 -35.2,4.5 -18.41,2.4 -36.9,4.9 -55.41,7.6 -15.1,2.1 -30.2,4.3 -45.3,6.6 -14.9,2.3 -29.8,4.6 -44.7,6.9 l -1.49,0.2 c -13.71,2.2 -27.4,4.5 -41.11,6.8 -2.4,0.3 -4.9,0.7 -7.29,1.2 -13.01,2.1 -26.1,4.4 -39.2,6.7 -17.7,3.1 -35.4,6.3 -53,9.5 -13.01,2.4 -25.91,4.9 -38.9,7.3 -0.9,0.2 -1.81,0.4 -2.7,0.6 -12.21,2.3 -24.41,4.7 -36.61,7.2 -18.59,3.7 -37.09,7.5 -55.69,11.4 -12.6,2.6 -25.1,5.3 -37.7,8 -4.01,0.9 -8,1.7 -12.01,2.6 -12.4,2.7 -24.8,5.5 -37.1,8.3 -42.5,9.6 -84.9,19.7 -127.3,30.2 -13.89,3.5 -27.8,7 -41.59,10.6 -31.71,8.2 -63.31,16.6 -94.9,25.3 -18.51,5.1 -36.9,10.3 -55.2,15.5 -17.6,5 -35,10.1 -52.3,15.3 -8.81,2.6 -17.5,5.2 -26.31,7.9 -8.79,2.6 -17.5,5.3 -26.19,8 -60.1,18.5 -118.2,37.4 -174.11,56.6 -8.19,2.8 -16.29,5.6 -24.4,8.4 -8.2,2.8 -16.39,5.7 -24.49,8.6 -21.4,7.5 -42.4,15.1 -63.11,22.7 -13.29,4.9 -26.49,9.8 -39.49,14.6 -20.71,7.8 -41.01,15.6 -60.91,23.3 -5.59,2.1 -11.19,4.3 -16.69,6.5 -8.9,3.5 -17.71,7 -26.5,10.5 l -0.8,0.3 c -5.61,2.2 -11.11,4.4 -16.6,6.6 -8.81,3.5 -17.5,7.1 -26.1,10.6 -29.7,12.1 -58.51,24.2 -86.6,36.2 -21.51,9.1 -42.5,18.3 -63,27.3 -30.2,13.4 -59.4,26.6 -87.5,39.6 -4.5,2.1 -9.01,4.2 -13.51,6.3 -11.59,5.4 -23,10.8 -34.29,16.2 -12.1,5.7 -23.9,11.4 -35.51,17.1 -72.9,35.4 -136.29,68.6 -188.89,98 -3.81,2.1 -7.5,4.2 -11.21,6.3 -7.3,4 -14.39,8.1 -21.29,12.1 -3.51,2 -6.9,3.9 -10.2,5.9 -7.2,4.1 -14.11,8.2 -20.81,12.2 -6.29,3.7 -12.3,7.4 -18.1,10.9 l -0.1,0.5 c -20.19,85 -34.9,172.1 -43.89,259.3 l -1.4,13.2 c -5.4,55.6 -8.6,111.6 -9.61,166.7 v 4.7 l -0.1,3.3 c -0.19,18.3 -0.19,36.8 0,54.3 l 0.3,19.8 c 0.2,9.6 0.5,19.2 0.91,29.3 l 1.1,25.4 c 0.29,6.4 0.69,12.7 0.99,19.1 58.11,-41.1 133.11,-91.8 223.71,-148.5 5.79,-3.7 11.7,-7.3 17.7,-11 79.8,-49.5 171.19,-103.3 273.59,-159.1 11.51,-6.3 23.11,-12.6 34.9,-18.9 19.01,-10.2 38.51,-20.5 58.21,-30.8 6.39,-3.4 12.8,-6.7 19.29,-10 129.4,-67.1 273.61,-135.7 431.51,-202.4 437.5,-184.6 889.4,-314.9 1343.39,-387.2 70.51,-11.2 141.21,-21.1 211.8,-29.5 35.3,-4.2 70.6,-8 105.9,-11.6 17.71,-1.7 35.41,-3.4 53.21,-5 35.2,-3.1 70.5,-5.9 105.8,-8.4 144.6,-10 289.2,-14.2 433.6,-12.5 13.7,0.1 27.39,0.3 41.1,0.6 2.1,0 4.1,0.1 6.19,0.2 14.01,0.2 27.91,0.6 41.9,1 20.91,0.5 41.81,1.3 62.7,2.1 17.8,0.8 35.71,1.6 53.51,2.5 14.19,0.7 28.4,1.5 42.6,2.3 8.2,0.5 16.49,1 24.7,1.5 1.49,0.1 3,0.2 4.49,0.3 28.31,1.8 56.51,3.8 84.7,6.1 4.41,0.3 8.71,0.7 13.11,1.1 14.79,1.2 29.49,2.5 44.29,3.8 17.8,1.6 35.5,3.4 53.31,5.2 17.8,1.8 35.6,3.6 53.3,5.6 14.3,1.6 28.49,3.3 42.8,5 7.6,0.8 15.29,1.8 22.89,2.8 7.9,0.9 15.7,1.9 23.61,2.9"></path><path id="path22" style="fill:#ffffff;fill-opacity:1;fill-rule:nonzero;stroke:none" d="m 2434.53,4028.6 -46.2,32.74 c -6.96,4.94 -8.96,10.16 -4.04,17.12 l 143.93,203.17 -1.45,1.98 -77.43,-51.61 -130.96,-86.89 c -7.65,-4.08 -15.03,-6.47 -23.26,-0.63 l -29.11,20.63 c -8.24,5.82 -12.66,8.96 -10.38,21.6 l 38.92,150.2 25.17,90.54 -1.9,1.35 -143.04,-201.91 c -4.93,-6.98 -10.52,-6.82 -18.11,-1.43 l -46.22,32.73 c -6.96,4.94 -8.69,11.87 -3.76,18.83 l 260.07,367.11 c 5.84,8.24 12.77,9.98 22.26,3.25 l 39.24,-27.8 c 10.12,-7.18 14.55,-10.31 11.99,-24.67 -6.1,-26.08 -51.32,-201.28 -56.55,-226.1 l -29.07,-106.79 3.16,-2.23 93.44,62.13 193.47,128.17 c 8.99,5.98 17.12,4.03 27.25,-3.15 l 37.35,-26.45 c 8.85,-6.28 10.78,-14.3 4.96,-22.53 l -260.09,-367.11 c -4.92,-6.97 -12.68,-7.18 -19.64,-2.25"></path><path id="path24" style="fill:#ffffff;fill-opacity:1;fill-rule:nonzero;stroke:none" d="m 2690.77,3864.65 c -49.11,29.7 -90.32,75.46 -102.64,130.04 -3.56,12.12 -2.08,17.57 11.91,22.7 l 43.53,13.56 c 13.18,3.82 15.82,-2.31 20.44,-14.16 10.79,-34.63 38.62,-69.57 64.5,-85.22 47.8,-28.89 81.62,-19.43 99.67,10.45 22.07,36.51 -7.19,75.04 -44.96,120.53 -40.68,48.15 -79.58,109.75 -37.06,180.1 43.75,72.36 129.05,81.52 199.41,38.98 43.14,-26.07 77.36,-59.45 97.04,-100.35 5.27,-12.26 0.48,-15.69 -10.85,-22.44 l -36.52,-21.43 c -8.39,-4.9 -16.76,-0.75 -22.72,7.39 -17.2,28.53 -38.4,54.93 -62.3,69.37 -30.53,18.47 -66.03,22.7 -89.3,-15.8 -19.66,-32.52 12.8,-70.27 35.58,-98.55 44.65,-55.08 98.72,-118.58 49.36,-200.24 -46.54,-76.99 -134.77,-83.48 -215.09,-34.93"></path><path id="path26" style="fill:#ffffff;fill-opacity:1;fill-rule:nonzero;stroke:none" d="m 3278.03,4000.35 -63.3,32.91 -59.75,-114.94 63.33,-32.9 c 33.03,-17.17 67.22,-5.21 84.74,28.5 15.38,29.61 10.78,67.83 -25.02,86.43 z m -94.46,-183.42 -64,33.26 -83.73,-162.79 c -3.93,-7.56 -9.84,-8.86 -18.1,-4.58 l -53,27.55 c -8.26,4.29 -11.29,10.24 -7.36,17.81 l 209.61,403.32 c 3.94,7.56 10.19,7.81 18.44,3.52 l 128.02,-66.53 c 81.9,-42.56 105.29,-122.03 66.66,-196.36 -36.85,-70.89 -120.14,-94.91 -196.54,-55.2"></path><path id="path28" style="fill:#4ec2a1;fill-opacity:1;fill-rule:nonzero;stroke:none" d="m 3720.35,3877.63 c 8.55,-3.71 8.2,-10.33 6.36,-14.61 -0.93,-2.13 -1.86,-4.27 -2.88,-4.67 -83.45,-69.48 -165.56,-137.85 -248.3,-207.66 l 89.67,-38.92 46.65,107.45 c 1.85,4.27 5.43,8.64 11.83,5.86 l 60.48,-26.26 c 6.41,-2.79 6.06,-9.39 4.23,-13.67 l -46.36,-106.74 45.55,-19.77 c 4.28,-1.85 8.63,-5.45 5.55,-12.55 l -21.02,-48.38 c -3.09,-7.13 -8.69,-6.39 -12.96,-4.53 l -45.53,19.76 -36.76,-84.68 c -1.86,-4.26 -6.56,-7.29 -12.25,-4.83 l -60.49,26.26 c -5.69,2.47 -6.28,6.96 -4.43,11.23 12.36,28.47 24.01,57.24 36.36,85.69 l -161.53,70.14 c -5.68,2.47 -10.14,7.79 -6.12,17.03 l 16.67,38.44 c 5.35,10.36 15.58,20.29 25.29,27.07 l 237.97,199.45 c 5.32,4.45 12.25,4.83 20.08,1.43 l 51.94,-22.54"></path><path id="path30" style="fill:#4ec2a1;fill-opacity:1;fill-rule:nonzero;stroke:none" d="m 4034.12,3674.88 -66,22.74 -36.13,-104.89 70.42,-24.25 c 36.67,-12.63 64.52,1.57 75.89,34.58 12.64,36.67 -6.77,58.94 -44.18,71.82 z m -57.67,-177.05 -68.96,23.75 -44.96,-130.56 74.08,-25.52 c 42.55,-14.63 75.56,0.23 89.2,39.84 13.14,38.15 3.44,74.32 -49.36,92.49 z m -53.11,-208.97 -154.76,53.29 c -8.79,3.04 -12.42,9.2 -9.63,17.27 l 147.24,427.62 c 2.78,8.06 7.96,11.19 17.5,7.91 l 148.16,-51.01 c 81.42,-28.04 118.11,-88.26 91.6,-165.28 -10.87,-31.54 -44.56,-65.06 -81.92,-71.07 l -1.01,-2.93 c 42.35,-34.28 44.04,-86.56 29.9,-127.64 -27.79,-80.66 -99.06,-118.47 -187.08,-88.16"></path><path id="path32" style="fill:#4ec2a1;fill-opacity:1;fill-rule:nonzero;stroke:none" d="m 4272.39,3183.16 -58.39,15.87 c -8.22,2.24 -12.64,6.65 -10.41,14.89 l 119.22,438.67 c 2.24,8.24 7.75,10.76 16.73,8.32 l 58.39,-15.88 c 6.73,-1.83 12.66,-6.65 10.21,-15.63 l -119.21,-438.68 c -2.24,-8.23 -8.3,-9.81 -16.54,-7.56"></path><path id="path34" style="fill:#4ec2a1;fill-opacity:1;fill-rule:nonzero;stroke:none" d="m 4736.09,3431.15 c 6.85,35.03 -11.25,67.81 -56.17,76.61 -44.92,8.77 -76.32,-14.33 -83.16,-49.35 l -39.59,-202.53 c -6.85,-35.02 12.92,-67.34 57.83,-76.12 42.64,-8.34 74.49,13.1 81.49,48.88 z m -135.37,-328.43 c -88.31,17.26 -146.85,81.67 -129.73,169.22 l 39.89,204.05 c 16.82,86.02 94.24,126.22 183.32,108.81 86.79,-16.98 145.94,-82.29 128.82,-169.85 l -39.89,-204.04 c -16.81,-86.02 -93.33,-125.61 -182.41,-108.19"></path><path id="path36" style="fill:#4ec2a1;fill-opacity:1;fill-rule:nonzero;stroke:none" d="m 4011.59,4634.1 c -43.77,15.29 -89.69,26.29 -137.35,30.48 -47.57,4.44 -97.05,1.18 -145.38,-11.89 -48.29,-13.06 -94.77,-36.58 -135.19,-68.5 -19.33,-15.3 -37.32,-32.46 -53.73,-51.24 -17.13,18.12 -35.44,35 -54.99,50.1 -40.53,31.61 -85.43,56.14 -131.92,73.68 -46.52,17.65 -94.61,28.32 -142.59,33.68 -48.14,5.07 -95.81,5.5 -143.7,-1.04 -4.35,-0.59 -7.77,-4.26 -7.9,-8.8 -0.16,-5.06 3.8,-9.29 8.85,-9.46 l 0.61,-0.01 c 45.15,-1.42 90.98,-9.5 134.31,-21.66 43.42,-12.41 85.03,-29.48 122.84,-51.65 37.84,-22.08 71.78,-49.14 100.27,-80.33 28.63,-31.06 51.35,-66.49 69.14,-103.92 l 4.94,-10.39 c 7.49,-15.65 22.88,-26.96 41.37,-28.35 27.54,-2.07 51.55,18.64 53.61,46.26 0.11,1.43 2.13,7.03 3.7,10.91 1.69,4.28 3.61,8.66 5.65,13.02 4.13,8.71 8.69,17.43 13.79,25.9 10.1,17.01 22.06,33.12 35.41,48.09 26.77,29.88 59.72,54.82 97.39,72.41 37.67,17.54 79.71,28.1 123.28,31.47 43.58,3.65 88.51,0.94 133.04,-6.53 4.33,-0.72 8.7,1.75 10.19,6.05 1.67,4.8 -0.86,10.05 -5.64,11.72"></path><path id="path38" style="fill:#4ec2a1;fill-opacity:1;fill-rule:nonzero;stroke:none" d="m 4884.49,4279.93 c -31.03,9.6 -63.47,16.14 -96.94,17.87 -33.43,1.9 -68.01,-1.64 -101.52,-12.02 -33.49,-10.37 -65.44,-28.02 -92.94,-51.4 -13.16,-11.2 -25.32,-23.68 -36.34,-37.24 -12.45,12.25 -25.7,23.61 -39.77,33.69 -29.18,21.11 -61.24,37.15 -94.25,48.26 -33.01,11.17 -66.96,17.43 -100.69,19.97 -33.85,2.33 -67.24,1.42 -100.61,-4.38 -3.03,-0.52 -5.33,-3.18 -5.32,-6.36 0.02,-3.55 2.9,-6.41 6.44,-6.4 l 0.43,0.01 c 31.66,0.15 63.96,-4.35 94.6,-11.77 30.72,-7.59 60.3,-18.48 87.33,-33.05 27.06,-14.51 51.51,-32.6 72.24,-53.72 20.84,-21.02 37.64,-45.26 51.05,-71.01 l 3.71,-7.16 c 5.64,-10.76 16.7,-18.29 29.69,-18.8 19.34,-0.75 35.63,14.36 36.38,33.75 0.04,1.01 1.31,4.98 2.32,7.74 1.07,3.04 2.3,6.15 3.62,9.25 2.68,6.21 5.65,12.44 9,18.5 6.65,12.17 14.62,23.75 23.59,34.57 17.99,21.6 40.44,39.91 66.38,53.17 25.93,13.24 55.11,21.71 85.54,25.17 30.42,3.67 61.96,2.9 93.33,-1.19 3.05,-0.4 6.05,1.44 6.99,4.49 1.04,3.4 -0.86,7.01 -4.26,8.06"></path><path id="path40" style="fill:#4ec2a1;fill-opacity:1;fill-rule:nonzero;stroke:none" d="m 5059.4,5109.36 c -53.51,16.55 -109.45,27.83 -167.18,30.81 -57.64,3.28 -117.26,-2.83 -175.06,-20.72 -57.74,-17.89 -112.85,-48.32 -160.27,-88.64 -22.69,-19.31 -43.67,-40.83 -62.67,-64.22 -21.47,21.13 -44.31,40.71 -68.57,58.1 -50.33,36.4 -105.62,64.06 -162.53,83.21 -56.94,19.27 -115.48,30.06 -173.65,34.44 -58.36,4.02 -115.94,2.44 -173.49,-7.55 -5.23,-0.9 -9.2,-5.47 -9.17,-10.97 0.03,-6.12 5,-11.05 11.1,-11.03 l 0.75,0.01 c 54.59,0.27 110.28,-7.49 163.13,-20.29 52.98,-13.08 103.98,-31.87 150.59,-56.99 46.66,-25.02 88.83,-56.21 124.58,-92.63 35.93,-36.26 64.91,-78.05 88.02,-122.47 l 6.42,-12.34 c 9.72,-18.56 28.79,-31.55 51.19,-32.42 33.35,-1.3 61.44,24.76 62.73,58.2 0.07,1.74 2.27,8.59 4,13.34 1.85,5.25 3.98,10.62 6.25,15.97 4.61,10.7 9.74,21.43 15.52,31.88 11.46,20.99 25.2,40.97 40.68,59.62 31.02,37.26 69.73,68.82 114.46,91.7 44.72,22.83 95.03,37.43 147.51,43.4 52.46,6.32 106.85,5 160.95,-2.06 5.26,-0.69 10.42,2.49 12.04,7.75 1.81,5.87 -1.48,12.09 -7.33,13.9"></path><path id="path42" style="fill:#243c75;fill-opacity:1;fill-rule:nonzero;stroke:none" d="m 2575.49,910.762 c 10.53,12.566 -18.69,69.258 -32.04,82.316 42.94,-25.359 77.11,-51.258 114.45,-84.828 60.13,12.059 147.5,31.281 207.51,18.68 60.02,-12.602 117.49,-42.489 156.77,-89.59 -161.02,-97.34 -323.08,-23.149 -365.71,30.34 -40.46,-5.301 -108.64,1.261 -145.71,1.679 18.8,16.18 48.81,22.371 64.73,41.403"></path><path id="path44" style="fill:#243c75;fill-opacity:1;fill-rule:nonzero;stroke:none" d="m 2056.62,939.719 c 9.56,11.422 -16.97,62.901 -29.1,74.761 39,-23.031 70.03,-46.539 103.94,-77.031 54.61,10.949 133.95,28.41 188.45,16.961 54.51,-11.441 106.7,-38.59 142.37,-81.359 -146.23,-88.403 -293.4,-21.031 -332.12,27.558 -36.73,-4.82 -98.66,1.141 -132.32,1.52 17.07,14.691 44.32,20.32 58.78,37.59"></path><path id="path46" style="fill:#243c75;fill-opacity:1;fill-rule:nonzero;stroke:none" d="m 2564.58,1514.18 c 8.01,12.99 -26.47,61.24 -40.5,71.47 42.91,-17.59 77.82,-36.85 116.67,-62.75 53.72,19.15 131.55,48.53 188.47,44.97 56.92,-3.57 113.81,-23.38 156.25,-61.47 -135.15,-111.13 -294.21,-64.55 -340.61,-21.02 -36.51,-10.29 -100.14,-13.37 -134.31,-17.96 15.14,17.41 41.92,27.13 54.03,46.76"></path><path id="path48" style="fill:#243c75;fill-opacity:1;fill-rule:nonzero;stroke:none" d="m 2245.53,1178.72 c 9.49,11.94 -19.03,63.94 -31.75,75.76 40.52,-22.55 72.91,-45.81 108.42,-76.13 55.61,12.65 136.37,32.61 192.46,22.32 56.1,-10.29 110.24,-36.7 147.87,-79.55 -147.36,-94.33 -299.78,-29.23 -340.7,19.49 -37.47,-5.89 -101.02,-1.42 -135.49,-1.92 17.09,15.49 44.84,21.97 59.19,40.03"></path><path id="path50" style="fill:#243c75;fill-opacity:1;fill-rule:nonzero;stroke:none" d="m 2599.19,1277.87 c 8.14,16.51 -38.79,70.51 -56.81,81.18 53.54,-16.21 97.66,-35.33 147.28,-61.99 62.32,29.15 152.41,73.35 221.17,75.58 68.75,2.23 139.33,-15.05 194.66,-55.92 -149.56,-148.91 -345.9,-111.19 -406.6,-64.24 -42.66,-16.54 -118.71,-27.53 -159.21,-36.94 16.17,22.63 47.22,37.37 59.51,62.33"></path><path id="path52" style="fill:#243c75;fill-opacity:1;fill-rule:nonzero;stroke:none" d="m 1875.3,1469.72 c 13.43,17.61 -29.45,92.28 -48.27,109.08 59.48,-31.58 107.16,-64.41 159.58,-107.41 80.37,19.96 197.04,51.24 278.77,37.92 81.73,-13.32 161.08,-50.12 216.96,-111.24 -211.23,-141.17 -434.38,-51.04 -495.18,18.52 -54.23,-9.64 -146.6,-4.97 -196.63,-6.68 24.36,22.98 64.46,33.18 84.77,59.81"></path><path id="path54" style="fill:#243c75;fill-opacity:1;fill-rule:nonzero;stroke:none" d="m 1660.49,1174.89 c 10.47,13.73 -22.95,71.94 -37.62,85.04 46.36,-24.62 83.53,-50.21 124.39,-83.73 62.65,15.55 153.6,39.94 217.31,29.55 63.71,-10.38 125.57,-39.07 169.12,-86.71 -164.66,-110.04 -338.6,-39.78 -386,14.44 -42.28,-7.51 -114.28,-3.87 -153.28,-5.2 18.99,17.91 50.25,25.86 66.08,46.61"></path><path id="path56" style="fill:#243c75;fill-opacity:1;fill-rule:nonzero;stroke:none" d="m 2952.51,1084.84 c 15.64,15.16 -15.13,94.06 -30.97,113.15 53.22,-39.42 94.79,-78.33 139.47,-127.83 81.08,7.65 199.13,20.99 276.66,-3.94 77.54,-24.92 149.33,-72.322 194.71,-139.95 -226.1,-106.36 -429.92,13.968 -478.86,90.52 -54.16,-1.43 -143.31,16.64 -192.22,22.3 27.06,18.77 67.56,22.83 91.21,45.75"></path></g></g></svg>